<svg width="146" height="146" viewBox="0 0 146 146" fill="none" xmlns="http://www.w3.org/2000/svg">
<path d="M109.504 61.8333L109.5 61.8334C106.929 61.8333 104.532 61.8364 102.148 62.3015L101.532 62.4217L101.156 61.9194C98.139 57.8901 94.2857 54.5613 89.8608 52.1616L88.7343 51.5507L89.6007 50.6064C93.3453 46.5252 95.4222 41.1874 95.4209 35.6486V35.6483C95.4209 29.6858 93.0522 23.9675 88.8361 19.7514C84.62 15.5353 78.9017 13.1667 72.9392 13.1667C66.9767 13.1667 61.2584 15.5353 57.0422 19.7514C52.8261 23.9675 50.4575 29.6858 50.4575 35.6483V35.6486C50.4561 41.1874 52.5331 46.5252 56.2777 50.6064L57.1398 51.5461L56.0217 52.1593C51.619 54.5739 47.7683 57.8802 44.7157 61.8671L44.345 62.3511L43.745 62.2434C41.4763 61.8362 39.0744 61.8333 36.5022 61.8333C32.1137 61.8539 27.7363 62.2757 23.4247 63.0933L23.4182 63.0946C22.234 63.3111 21.1651 63.9408 20.4018 64.8717C19.6384 65.8026 19.2302 66.9742 19.2499 68.1779L19.25 68.186V68.1942V118.382V118.383C19.2488 119.13 19.4121 119.868 19.7284 120.545C20.0447 121.221 20.5062 121.82 21.08 122.297L21.0846 122.301C21.6548 122.782 22.3239 123.132 23.0442 123.325C23.7592 123.517 24.5073 123.55 25.2363 123.423C28.932 122.628 32.6928 122.174 36.4715 122.066L36.4854 122.066L36.4992 122.066C48.4422 122.056 60.1265 125.54 70.1134 132.087L109.504 61.8333ZM109.504 61.8333C113.889 61.8142 118.267 62.1957 122.583 62.973L109.504 61.8333ZM73.0733 23.336L73 23.3306L72.9267 23.336C69.8252 23.5639 66.9247 24.9568 64.8077 27.235C62.6907 29.5132 61.5141 32.508 61.5141 35.6179C61.5141 38.7279 62.6907 41.7226 64.8077 44.0008C66.9247 46.279 69.8252 47.6719 72.9267 47.8998L73 47.9052L73.0733 47.8998C76.1749 47.6719 79.0754 46.279 81.1923 44.0008C83.3093 41.7226 84.4859 38.7279 84.4859 35.6179C84.4859 32.508 83.3093 29.5132 81.1923 27.235C79.0754 24.9568 76.1749 23.5639 73.0733 23.336ZM66.4968 118.498L67.9167 119.155V117.591V81.0908V80.5272L67.4344 80.2353C61.0253 76.3566 53.9646 73.6748 46.5966 72.3207L46.507 72.3042H46.4158H45.8223C40.6853 71.5267 35.4684 71.4265 30.3051 72.0063L29.4167 72.106V73V111.203V112.361L30.5622 112.193C32.5468 111.901 34.4824 111.899 36.5 111.899H36.5003C46.8595 111.897 57.0951 114.148 66.4968 118.498ZM72.5014 71.4335L72.9973 71.7188L73.4946 71.4358C78.1344 68.7958 83.0449 66.6626 88.1411 65.073L89.9605 64.5055L88.4597 63.3309C84.0459 59.8763 78.6112 57.9831 73.0064 57.9475L72.9968 57.9475L72.9873 57.9476C67.3676 58.0193 61.9312 59.9576 57.5339 63.4576L56.0279 64.6563L57.8745 65.1994C59.8929 65.793 61.859 66.5668 63.8735 67.3604L64.0501 67.43H64.24H64.4049C67.1848 68.5937 69.889 69.9308 72.5014 71.4335ZM115.483 112.198L116.583 112.309V111.203V73V72.0998L115.688 72.0055C110.705 71.4805 105.676 71.6014 100.724 72.365H99.5842H99.5023L99.4215 72.3783C92.0684 73.591 85.002 76.1491 78.5767 79.9245L78.0833 80.2144V80.7867V117.287V118.846L79.5006 118.195C90.7479 113.031 103.169 110.961 115.483 112.198Z" fill="#FFCD29" stroke="#F1F8F9" stroke-width="2"/>
</svg>
