<svg width="245" height="245" viewBox="0 0 245 245" fill="none" xmlns="http://www.w3.org/2000/svg">
<path d="M40.8333 81.6669L81.6666 40.8335M142.917 40.8335L40.8333 142.917M40.8333 204.167L204.167 40.8335M204.167 102.083L102.083 204.167M204.167 163.333L163.333 204.167" stroke="#383838" stroke-opacity="0.1" stroke-width="14" stroke-linecap="round" stroke-linejoin="round"/>
<g clip-path="url(#clip0_238_19)">
<path fill-rule="evenodd" clip-rule="evenodd" d="M121.75 161.5C126.97 161.5 132.139 160.472 136.962 158.474C141.784 156.477 146.166 153.549 149.857 149.857C153.549 146.166 156.477 141.784 158.474 136.962C160.472 132.139 161.5 126.97 161.5 121.75C161.5 116.53 160.472 111.361 158.474 106.538C156.477 101.716 153.549 97.3336 149.857 93.6425C146.166 89.9514 141.784 87.0234 136.962 85.0258C132.139 83.0282 126.97 82 121.75 82C111.208 82 101.097 86.1879 93.6425 93.6425C86.1879 101.097 82 111.208 82 121.75C82 132.292 86.1879 142.403 93.6425 149.857C101.097 157.312 111.208 161.5 121.75 161.5ZM142.809 111.327L136.025 105.673L117.033 128.459L107.206 118.627L100.961 124.873L117.629 141.541L142.809 111.327Z" fill="#B3CE42"/>
</g>
<defs>
<clipPath id="clip0_238_19">
<rect width="80" height="80" fill="white" transform="translate(82 82)"/>
</clipPath>
</defs>
</svg>
